<?xml version="1.0" encoding="UTF-8"?>
<svg id="katman_2" data-name="katman 2" xmlns="http://www.w3.org/2000/svg" viewBox="0 0 131.32 30.62">
  <defs>
    <style>
      .cls-1 {
        fill: #3772ff;
      }

      .cls-1, .cls-2 {
        stroke-width: 0px;
      }

      .cls-2 {
        fill: #1e1e1e;
      }
    </style>
  </defs>
  <g id="katman_1" data-name="katman 1">
    <path class="cls-1" d="m35.19,4.43c-1.57.03-3.09.24-4.56.59V0H0v30.62h30.62V6.84c1.45-.89,2.97-1.7,4.56-2.41Zm-9.41,21.35H4.85V4.85h20.93v1.94c-3.72,1.88-7.14,4.84-10.28,8.82-1.84-.86-3.61-2.12-5.35-3.67-1.63.97-3.09,2.31-4.23,4.21,2.29.89,5.91,3.44,9.58,7.73h0c2.72-5.41,6.14-9.9,10.27-13.47v15.38Z"/>
    <g>
      <g>
        <path class="cls-2" d="m40.06,5.65h8.49c6.11,0,10.3,3.68,10.3,9.34s-4.19,9.34-10.3,9.34h-8.49V5.65Zm8.28,15.14c3.71,0,6.14-2.22,6.14-5.79s-2.43-5.79-6.14-5.79h-3.95v11.59h3.95Z"/>
        <path class="cls-2" d="m61.65,5.73c0-1.28.93-2.24,2.24-2.24s2.24.96,2.24,2.24-.93,2.27-2.24,2.27-2.24-.96-2.24-2.27Zm.16,4.24h4.16v14.36h-4.16v-14.36Z"/>
        <path class="cls-2" d="m65.44,28.92l1.12-3.02c.45.32,1.07.51,1.76.51,1.04,0,1.71-.67,1.71-2.08v-14.36h4.16v14.33c0,3.31-1.95,5.42-5.42,5.42-1.28,0-2.54-.24-3.34-.8Zm4.08-23.28c0-1.31,1.04-2.32,2.59-2.32s2.59.96,2.59,2.24c0,1.39-1.04,2.4-2.59,2.4s-2.59-1.01-2.59-2.32Z"/>
        <path class="cls-2" d="m77.88,5.73c0-1.28.93-2.24,2.24-2.24s2.24.96,2.24,2.24-.93,2.27-2.24,2.27-2.24-.96-2.24-2.27Zm.16,4.24h4.16v14.36h-4.16v-14.36Z"/>
      </g>
      <g>
        <path class="cls-1" d="m85.91,5.73c0-1.28.93-2.24,2.24-2.24s2.24.96,2.24,2.24-.93,2.27-2.24,2.27-2.24-.96-2.24-2.27Zm.16,4.24h4.16v14.36h-4.16v-14.36Z"/>
        <path class="cls-1" d="m105.93,21.13v3.2h-12.81v-2.51l7.31-8.65h-7.13v-3.2h12.39v2.51l-7.31,8.65h7.55Z"/>
        <path class="cls-1" d="m108.44,5.73c0-1.28.93-2.24,2.24-2.24s2.24.96,2.24,2.24-.93,2.27-2.24,2.27-2.24-.96-2.24-2.27Zm.16,4.24h4.16v14.36h-4.16v-14.36Z"/>
        <path class="cls-1" d="m131.32,16.11v8.22h-4.16v-7.58c0-2.32-1.07-3.39-2.91-3.39-2,0-3.44,1.23-3.44,3.87v7.1h-4.16v-14.36h3.98v1.68c1.12-1.23,2.8-1.9,4.75-1.9,3.39,0,5.95,1.98,5.95,6.35Z"/>
      </g>
    </g>
  </g>
</svg>